<svg width="500" height="400" viewBox="0 0 500 400" fill="none" xmlns="http://www.w3.org/2000/svg">
  <!-- 背景元素 -->
  <rect x="50" y="50" width="400" height="300" rx="15" fill="#F0F9FF" />
  
  <!-- 书籍 -->
  <rect x="100" y="100" width="120" height="150" rx="5" fill="#3B82F6" />
  <rect x="110" y="110" width="100" height="130" rx="3" fill="#DBEAFE" />
  <rect x="120" y="130" width="80" height="10" rx="2" fill="#93C5FD" />
  <rect x="120" y="150" width="80" height="10" rx="2" fill="#93C5FD" />
  <rect x="120" y="170" width="60" height="10" rx="2" fill="#93C5FD" />
  
  <!-- 另一本书 -->
  <rect x="140" y="90" width="120" height="150" rx="5" fill="#6366F1" stroke="#4F46E5" strokeWidth="2" />
  <rect x="150" y="100" width="100" height="130" rx="3" fill="#E0E7FF" />
  <rect x="160" y="120" width="80" height="10" rx="2" fill="#A5B4FC" />
  <rect x="160" y="140" width="80" height="10" rx="2" fill="#A5B4FC" />
  <rect x="160" y="160" width="60" height="10" rx="2" fill="#A5B4FC" />
  
  <!-- 电脑/平板 -->
  <rect x="280" y="130" width="160" height="120" rx="5" fill="#1E40AF" />
  <rect x="290" y="140" width="140" height="90" rx="3" fill="#DBEAFE" />
  <rect x="310" y="160" width="100" height="10" rx="2" fill="#93C5FD" />
  <rect x="310" y="180" width="100" height="10" rx="2" fill="#93C5FD" />
  <rect x="310" y="200" width="70" height="10" rx="2" fill="#93C5FD" />
  <path d="M330 250 L390 250" stroke="#DBEAFE" strokeWidth="3" strokeLinecap="round" />
  
  <!-- 笔记本 -->
  <rect x="200" y="220" width="100" height="80" rx="3" fill="#9CA3AF" stroke="#6B7280" strokeWidth="2" />
  <rect x="210" y="230" width="80" height="60" rx="2" fill="#F3F4F6" />
  <rect x="220" y="240" width="60" height="5" rx="1" fill="#D1D5DB" />
  <rect x="220" y="250" width="60" height="5" rx="1" fill="#D1D5DB" />
  <rect x="220" y="260" width="40" height="5" rx="1" fill="#D1D5DB" />
  
  <!-- 装饰圆点 -->
  <circle cx="90" y="80" r="10" fill="#EF4444" opacity="0.7" />
  <circle cx="400" y="90" r="15" fill="#10B981" opacity="0.7" />
  <circle cx="430" y="280" r="12" fill="#F59E0B" opacity="0.7" />
  <circle cx="100" y="300" r="8" fill="#8B5CF6" opacity="0.7" />
  
  <!-- 抽象连接线条 -->
  <path d="M150 80 C200 50, 250 30, 300 80" stroke="#3B82F6" strokeWidth="2" opacity="0.5" />
  <path d="M120 270 C180 320, 250 340, 350 280" stroke="#8B5CF6" strokeWidth="2" opacity="0.5" />
  <path d="M410 120 C380 170, 350 190, 320 110" stroke="#10B981" strokeWidth="2" opacity="0.5" />
</svg> 